<?xml version="1.0" standalone="no"?>
<!DOCTYPE svg PUBLIC "-//W3C//DTD SVG 20010904//EN"
 "http://www.w3.org/TR/2001/REC-SVG-20010904/DTD/svg10.dtd">
<svg version="1.0" xmlns="http://www.w3.org/2000/svg"
 width="512.000000pt" height="512.000000pt" viewBox="0 0 512.000000 512.000000"
 preserveAspectRatio="xMidYMid meet">
<metadata>
Created by potrace 1.14, written by Peter Selinger 2001-2017
</metadata>
<g transform="translate(0.000000,512.000000) scale(0.100000,-0.100000)"
fill="#000000" stroke="none">
<path d="M2465 4703 c-131 -15 -256 -62 -372 -139 -293 -194 -433 -563 -343
-905 26 -101 53 -159 116 -256 193 -292 563 -433 905 -343 101 26 159 53 256
116 292 193 433 563 343 905 -26 101 -53 159 -116 256 -169 255 -487 403 -789
366z"/>
<path d="M2130 1640 l0 -1220 425 0 425 0 0 1220 0 1220 -425 0 -425 0 0
-1220z"/>
</g>
</svg>
